<svg id="visual" viewBox="0 0 1000 1000" width="1000" height="1000" xmlns="http://www.w3.org/2000/svg" xmlns:xlink="http://www.w3.org/1999/xlink" version="1.1"><rect x="0" y="0" width="1000" height="1000" fill="#0a0908"></rect><path d="M416 0L519 0L519 143L478 143L478 286L384 286L384 429L513 429L513 571L493 571L493 714L543 714L543 857L388 857L388 1000L0 1000L0 857L0 857L0 714L0 714L0 571L0 571L0 429L0 429L0 286L0 286L0 143L0 143L0 0L0 0Z" fill="#92dce5"></path><path d="M336 0L311 0L311 143L333 143L333 286L424 286L424 429L281 429L281 571L335 571L335 714L308 714L308 857L236 857L236 1000L0 1000L0 857L0 857L0 714L0 714L0 571L0 571L0 429L0 429L0 286L0 286L0 143L0 143L0 0L0 0Z" fill="#008dcc"></path><path d="M208 0L238 0L238 143L140 143L140 286L160 286L160 429L142 429L142 571L112 571L112 714L128 714L128 857L238 857L238 1000L0 1000L0 857L0 857L0 714L0 714L0 571L0 571L0 429L0 429L0 286L0 286L0 143L0 143L0 0L0 0Z" fill="#003399"></path></svg>